Coordinates
version=1
nRows=13
nColumns=63
inDegrees=yes

Units are S.I. units (second, meters, Newtons, ...)
If the header above contains a line with 'inDegrees', this indicates whether rotational values are in degrees (yes) or radians (no).

endheader
time	pelvis_tilt	pelvis_list	pelvis_rotation	pelvis_tx	pelvis_ty	pelvis_tz	hip_flexion_r	hip_adduction_r	hip_rotation_r	knee_angle_r	knee_angle_r_beta	ankle_angle_r	subtalar_angle_r	mtp_angle_r	hip_flexion_l	hip_adduction_l	hip_rotation_l	knee_angle_l	knee_angle_l_beta	ankle_angle_l	subtalar_angle_l	mtp_angle_l	L5_S1_Flex_Ext	L5_S1_Lat_Bending	L5_S1_axial_rotation	L4_L5_Flex_Ext	L4_L5_Lat_Bending	L4_L5_axial_rotation	L3_L4_Flex_Ext	L3_L4_Lat_Bending	L3_L4_axial_rotation	L2_L3_Flex_Ext	L2_L3_Lat_Bending	L2_L3_axial_rotation	L1_L2_Flex_Ext	L1_L2_Lat_Bending	L1_L2_axial_rotation	L1_T12_Flex_Ext	L1_T12_Lat_Bending	L1_T12_axial_rotation	Abs_r3	Abs_r2	Abs_r1	Abs_t1	Abs_t2	neck_flexion	neck_bending	neck_rotation	arm_flex_r	arm_add_r	arm_rot_r	elbow_flex_r	pro_sup_r	wrist_flex_r	wrist_dev_r	arm_flex_l	arm_add_l	arm_rot_l	elbow_flex_l	pro_sup_l	wrist_flex_l	wrist_dev_l
4.133333	-0.379928	-3.098854	92.467962	0.271164	0.705459	0.888357	-0.407378	-0.128741	-5.326432	6.361323	0.111026	23.752431	14.212960	0.000000	-1.666859	1.386146	-0.398395	4.023417	0.070222	22.194195	-9.120547	0.000000	-0.153871	0.319301	-0.204931	-0.285754	0.424670	-0.217739	-0.252794	0.776349	-0.217739	-0.175859	0.776349	-0.179314	-0.142884	0.651119	-0.166506	-0.087922	0.494597	-0.153698	-1.099084	3.611997	-1.139764	0.000000	0.000000	21.183277	1.456361	7.412854	8.708803	-13.825435	114.483562	18.154914	14.836278	-6.287795	-14.257635	-9.939913	-14.976724	18.007903	45.341751	82.814806	-8.810034	-4.954946
4.150000	-0.314427	-3.136691	92.385898	0.271419	0.705056	0.888585	-0.243935	-0.052382	-5.374669	6.391669	0.111556	24.260786	14.772809	0.000000	-1.573317	1.288323	-0.893515	4.077542	0.071167	22.600811	-8.546406	0.000000	-0.150526	0.320856	-0.204736	-0.279542	0.426739	-0.217532	-0.247300	0.780130	-0.217532	-0.172036	0.780130	-0.179144	-0.139779	0.654290	-0.166348	-0.086011	0.497007	-0.153552	-1.075194	3.629592	-1.138678	0.000000	0.000000	20.846763	2.214441	6.613912	8.988722	-13.749968	116.162536	18.166911	12.349354	-5.848788	-14.078910	-10.180496	-14.674454	21.443378	40.965545	80.577200	-9.316149	-5.949582
4.166667	-0.253242	-3.194010	92.442286	0.271552	0.704716	0.888911	-0.079183	0.022064	-5.540607	6.398879	0.111682	24.729090	15.294111	0.000000	-1.429015	1.182829	-1.404739	4.158753	0.072584	22.997993	-7.779000	0.000000	-0.143000	0.320212	-0.229743	-0.265565	0.425882	-0.244102	-0.234934	0.778564	-0.244102	-0.163434	0.778564	-0.201025	-0.132790	0.652977	-0.186666	-0.081710	0.496009	-0.172307	-1.021433	3.622304	-1.277763	0.000000	0.000000	20.575023	2.900123	5.849995	9.267460	-13.663784	116.937028	18.315515	11.427739	-5.169871	-13.335896	-10.359675	-14.435771	25.135124	36.933556	78.413517	-9.768442	-6.542326
4.183333	-0.179549	-3.248489	92.611580	0.271591	0.704439	0.889329	0.063367	0.116868	-5.737331	6.378376	0.111324	25.125152	15.683608	0.000000	-1.270214	1.053898	-1.866962	4.240446	0.074010	23.356821	-6.936839	0.000000	-0.135208	0.320247	-0.286342	-0.251095	0.425929	-0.304239	-0.222134	0.778649	-0.304239	-0.154530	0.778649	-0.250549	-0.125554	0.653048	-0.232653	-0.077258	0.496063	-0.214757	-0.965780	3.622701	-1.592549	0.000000	0.000000	20.399111	3.539666	5.239670	9.764185	-13.559039	118.130503	18.419477	10.750180	-4.454457	-12.400726	-10.554898	-14.258099	28.858429	33.367674	76.399576	-10.099721	-6.835795
4.200000	-0.085983	-3.301259	92.879391	0.271469	0.704189	0.889815	0.183535	0.231583	-5.976822	6.330986	0.110497	25.447860	15.974220	0.000000	-1.093953	0.900212	-2.303823	4.334059	0.075644	23.689976	-5.996358	0.000000	-0.126841	0.323550	-0.364055	-0.235557	0.430321	-0.386808	-0.208387	0.786679	-0.386808	-0.144967	0.786679	-0.318548	-0.117785	0.659783	-0.295795	-0.072477	0.501179	-0.273041	-0.906013	3.660062	-2.024765	0.000000	0.000000	20.307265	4.074713	4.800306	10.262263	-13.454725	118.688035	18.560812	11.297977	-3.642204	-11.101916	-10.760438	-14.129525	32.431484	30.295553	74.498512	-10.223622	-6.901087
4.216667	0.011936	-3.348419	93.249307	0.271242	0.703988	0.890377	0.272404	0.355598	-6.245168	6.252927	0.109134	25.678743	16.133222	0.000000	-0.898095	0.731144	-2.808641	4.456581	0.077782	24.024146	-4.822466	0.000000	-0.118677	0.327770	-0.468947	-0.220395	0.435934	-0.498257	-0.194975	0.796940	-0.498257	-0.135636	0.796940	-0.410329	-0.110204	0.668388	-0.381020	-0.067812	0.507715	-0.351711	-0.847699	3.707798	-2.608144	0.000000	0.000000	20.280604	4.544268	4.587604	11.074733	-13.152327	121.043462	18.457348	10.348241	-2.683145	-10.016226	-11.012456	-14.064067	35.586133	27.773609	72.774645	-10.120205	-6.748464
4.233333	0.141433	-3.396099	93.688015	0.270842	0.703789	0.890974	0.336555	0.511564	-6.495145	6.139498	0.107154	25.802026	16.132068	0.000000	-0.694536	0.539038	-3.142499	4.575955	0.079865	24.289216	-3.797625	0.000000	-0.110026	0.337574	-0.577311	-0.204328	0.448974	-0.613392	-0.180761	0.820778	-0.613392	-0.125748	0.820778	-0.505147	-0.102170	0.688381	-0.469065	-0.062869	0.522903	-0.432983	-0.785902	3.818708	-3.210828	0.000000	0.000000	20.323661	4.864685	4.515994	11.827053	-12.925455	122.440457	18.445190	10.315477	-1.815891	-8.705852	-11.204943	-14.048663	38.404000	25.771162	71.154770	-9.735401	-6.407882
4.250000	0.288113	-3.439184	94.171969	0.270319	0.703611	0.891613	0.375111	0.682571	-6.749619	6.003449	0.104780	25.829246	16.026333	0.000000	-0.494563	0.340938	-3.302798	4.686989	0.081803	24.468753	-2.963749	0.000000	-0.103140	0.350884	-0.676515	-0.191541	0.466675	-0.718797	-0.169449	0.853138	-0.718797	-0.117879	0.853138	-0.591950	-0.095776	0.715522	-0.549668	-0.058934	0.543519	-0.507386	-0.736718	3.969266	-3.762572	0.000000	0.000000	20.430157	5.055056	4.516599	12.504151	-12.774607	122.880467	18.524527	10.896348	-0.997197	-7.271290	-11.272257	-14.106091	40.882792	24.278457	69.678348	-9.249221	-5.985678
4.266667	0.421778	-3.484109	94.719078	0.269730	0.703468	0.892279	0.386606	0.844592	-6.992555	5.841465	0.101953	25.758522	15.752381	0.000000	-0.284939	0.158715	-3.368612	4.812507	0.083994	24.605204	-2.152959	0.000000	-0.098149	0.362535	-0.770522	-0.182272	0.482171	-0.818680	-0.161249	0.881466	-0.818680	-0.112174	0.881466	-0.674207	-0.091141	0.739280	-0.626049	-0.056082	0.561566	-0.577892	-0.701068	4.101063	-4.285415	0.000000	0.000000	20.567169	5.174108	4.554896	13.219500	-12.611706	123.148837	18.571202	11.349400	-0.203155	-6.012214	-11.201552	-14.232010	43.001798	23.339498	68.224330	-8.612509	-5.387145
4.283333	0.545983	-3.543201	95.278030	0.269143	0.703348	0.892954	0.400565	0.987050	-7.346245	5.682607	0.099180	25.623914	15.552656	0.000000	-0.071441	0.002651	-3.188851	4.919142	0.085855	24.620733	-1.683077	0.000000	-0.094026	0.372210	-0.836540	-0.174616	0.495039	-0.888823	-0.154476	0.904992	-0.888823	-0.107463	0.904992	-0.731972	-0.087313	0.759011	-0.679688	-0.053727	0.576553	-0.627405	-0.671620	4.210515	-4.652582	0.000000	0.000000	20.736124	5.153457	4.437801	13.846313	-12.430397	123.143418	18.617756	11.611706	0.628235	-4.987073	-10.947224	-14.445433	44.715142	22.878746	67.222642	-8.161639	-4.860781
4.300000	0.641845	-3.623455	95.847872	0.268603	0.703241	0.893622	0.414278	1.105088	-7.623325	5.509382	0.096157	25.406807	15.167533	0.000000	0.152112	-0.112311	-2.812574	5.013830	0.087508	24.545550	-1.461908	0.000000	-0.090750	0.376688	-0.878395	-0.168533	0.500995	-0.933295	-0.149094	0.915878	-0.933295	-0.103719	0.915878	-0.768596	-0.084271	0.768141	-0.713696	-0.051855	0.583489	-0.658796	-0.648221	4.261166	-4.885370	0.000000	0.000000	20.933815	5.029941	4.138994	14.384356	-12.267116	122.569042	18.709318	11.925377	1.351248	-4.292058	-10.516990	-14.714865	46.033155	22.848551	66.566048	-7.857792	-4.464465
4.316667	0.714557	-3.731253	96.416024	0.268084	0.703125	0.894282	0.443811	1.191644	-7.951222	5.340239	0.093205	25.130858	14.788174	0.000000	0.385465	-0.184571	-2.212047	5.081323	0.088686	24.372767	-1.550569	0.000000	-0.087605	0.376488	-0.897739	-0.162691	0.500729	-0.953848	-0.143926	0.915393	-0.953848	-0.100123	0.915393	-0.785522	-0.081350	0.767734	-0.729413	-0.050057	0.583180	-0.673305	-0.625752	4.258907	-4.992958	0.000000	0.000000	21.174406	4.836569	3.640489	14.717791	-12.139639	120.812146	18.928642	13.200773	1.847905	-3.781773	-9.970045	-14.970326	46.684832	23.177520	66.590774	-7.690828	-4.226512
4.333333	0.747711	-3.866117	96.956356	0.267620	0.702983	0.894981	0.505267	1.232719	-8.228412	5.199379	0.090746	24.822020	14.315997	0.000000	0.627749	-0.198412	-1.424924	5.121086	0.089380	24.117464	-1.911034	0.000000	-0.085162	0.369899	-0.901355	-0.158155	0.491966	-0.957690	-0.139913	0.899372	-0.957690	-0.097332	0.899372	-0.788686	-0.079082	0.754298	-0.732351	-0.048662	0.572974	-0.676016	-0.608306	4.184372	-5.013067	0.000000	0.000000	21.487113	4.571068	2.979529	14.958038	-12.002273	118.426774	19.223029	14.931261	1.912328	-3.621640	-9.367255	-15.172296	46.505237	23.848982	67.435973	-7.646248	-3.962059
